<?xml version="1.0" encoding="UTF-8" standalone="no"?> <svg id="_1_-_10" data-name="1 - 10" xmlns="http://www.w3.org/2000/svg" viewBox="0 0 48 48"><defs><style>.cls-1{fill:#00cf66;}.cls-2{fill:#00b157;}.cls-3{fill:#eaeff0;}.cls-4{fill:#d9e1e2;}.cls-5{fill:#009ae0;}.cls-6{fill:#0081bd;}.cls-7{fill:#fd3730;}.cls-8{fill:#d3241f;}</style></defs><title>Library</title><g id="Library"><rect class="cls-1" x="2" y="6" width="12" height="36" rx="3"/><path class="cls-2" d="M8,6H5A3,3,0,0,0,2,9V39a3,3,0,0,0,3,3H8Z"/><path class="cls-3" d="M11,14H5a1,1,0,0,1,0-2h6a1,1,0,0,1,0,2Z"/><path class="cls-4" d="M8,14V12H5a1,1,0,0,0,0,2Z"/><path class="cls-3" d="M11,36H5a1,1,0,0,1,0-2h6a1,1,0,0,1,0,2Z"/><path class="cls-4" d="M8,36V34H5a1,1,0,0,0,0,2Z"/><rect class="cls-5" x="15" y="6" width="12" height="36" rx="3"/><path class="cls-6" d="M21,6H18a3,3,0,0,0-3,3V39a3,3,0,0,0,3,3h3Z"/><path class="cls-3" d="M24,14H18a1,1,0,0,1,0-2h6a1,1,0,0,1,0,2Z"/><path class="cls-4" d="M21,14V12H18a1,1,0,0,0,0,2Z"/><path class="cls-3" d="M24,36H18a1,1,0,0,1,0-2h6a1,1,0,0,1,0,2Z"/><path class="cls-4" d="M21,36V34H18a1,1,0,0,0,0,2Z"/><rect class="cls-7" x="31.219" y="5.735" width="12" height="36" rx="3" transform="translate(-4.875 10.442) rotate(-15)"/><path class="cls-8" d="M32.56,6.348l-2.9.777A3,3,0,0,0,27.541,10.8l7.765,28.978A3,3,0,0,0,38.98,41.9l2.9-.777Z"/><path class="cls-3" d="M37.529,13.3l-5.8,1.553a1,1,0,0,1-.518-1.932l5.8-1.553a1,1,0,0,1,.518,1.932Z"/><path class="cls-4" d="M34.631,14.076l-.518-1.932-2.9.776a1,1,0,0,0,.518,1.932Z"/><path class="cls-3" d="M43.223,34.549l-5.8,1.553a1,1,0,1,1-.518-1.931l5.8-1.553a1,1,0,1,1,.518,1.931Z"/><path class="cls-4" d="M40.325,35.326l-.518-1.932-2.9.777a1,1,0,1,0,.518,1.931Z"/></g></svg>